<svg xmlns="http://www.w3.org/2000/svg" viewBox="0 0 256 256" width="256" height="256">
  <rect width="256" height="256" fill="#0B2545"/>
  <circle cx="128" cy="128" r="78" fill="none" stroke="#FFD60A" stroke-width="6" stroke-linecap="round" stroke-dasharray="380 120" transform="rotate(-30 128 128)"/>
  <circle cx="128" cy="128" r="62" fill="#15396D"/>
  <g transform="translate(128 128)">
    <path d="M-44 -8 L-16 4 L-4 -8 L8 4 L20 -8 L36 -8 L40 4 L36 12 L28 24 L4 36 L-28 24 L-44 4 Z" fill="#ffffff"/>
    <rect x="-48" y="-14" width="20" height="22" rx="2" fill="#FFD60A"/>
    <rect x="28" y="-14" width="20" height="22" rx="2" fill="#ffffff"/>
    <path d="M-4 36 L-4 48 L0 56 L4 48 L4 36 Z" fill="#FFD60A"/>
  </g>
  <text x="128" y="225" text-anchor="middle" font-family="Arial Black, sans-serif" font-weight="900" font-size="34" fill="#ffffff" letter-spacing="2">LINK-UP</text>
</svg>
